<svg xmlns="http://www.w3.org/2000/svg" xmlns:xlink="http://www.w3.org/1999/xlink" width="500" zoomAndPan="magnify" viewBox="0 0 375 374.999991" height="500" preserveAspectRatio="xMidYMid meet" version="1.0"><defs><g/><clipPath id="6d6af9799a"><path d="M 98.464844 233.445312 L 130.671875 233.445312 L 130.671875 248.910156 L 98.464844 248.910156 Z M 98.464844 233.445312 " clip-rule="nonzero"/></clipPath><clipPath id="d45a27e13e"><path d="M 109.195312 247.984375 C 110.84375 248.542969 112.722656 248.910156 114.5625 248.910156 C 116.402344 248.910156 118.171875 248.597656 119.804688 248.035156 C 119.839844 248.019531 119.875 248.019531 119.910156 248 C 126.039062 245.757812 130.550781 239.832031 130.640625 233.445312 L 98.464844 233.445312 C 98.554688 239.867188 102.996094 245.792969 109.195312 247.984375 Z M 109.195312 247.984375 " clip-rule="nonzero"/></clipPath><clipPath id="f0c5c43b70"><path d="M 0.609375 64.09375 L 375 64.09375 L 375 240.398438 L 0.609375 240.398438 Z M 0.609375 64.09375 " clip-rule="nonzero"/></clipPath><clipPath id="f9e61ca8ba"><path d="M 166.421875 229.238281 L 216.132812 229.238281 L 216.132812 253.117188 L 166.421875 253.117188 Z M 166.421875 229.238281 " clip-rule="nonzero"/></clipPath><clipPath id="3d8bd7a280"><path d="M 182.984375 251.683594 C 185.53125 252.546875 188.425781 253.117188 191.265625 253.117188 C 194.105469 253.117188 196.839844 252.628906 199.359375 251.761719 C 199.414062 251.738281 199.46875 251.738281 199.519531 251.710938 C 208.980469 248.246094 215.949219 239.101562 216.085938 229.238281 L 166.421875 229.238281 C 166.554688 239.15625 173.414062 248.300781 182.984375 251.683594 Z M 182.984375 251.683594 " clip-rule="nonzero"/></clipPath><clipPath id="926f7f52a9"><path d="M 255.785156 229.238281 L 303.789062 229.238281 L 303.789062 252.296875 L 255.785156 252.296875 Z M 255.785156 229.238281 " clip-rule="nonzero"/></clipPath><clipPath id="429101e6a9"><path d="M 271.78125 250.910156 C 274.238281 251.746094 277.035156 252.296875 279.777344 252.296875 C 282.523438 252.296875 285.160156 251.824219 287.59375 250.988281 C 287.644531 250.964844 287.699219 250.964844 287.75 250.9375 C 296.886719 247.59375 303.613281 238.761719 303.742188 229.238281 L 255.785156 229.238281 C 255.914062 238.8125 262.542969 247.644531 271.78125 250.910156 Z M 271.78125 250.910156 " clip-rule="nonzero"/></clipPath><clipPath id="b972d1c557"><path d="M 35.738281 229.238281 L 73.390625 229.238281 L 73.390625 247.324219 L 35.738281 247.324219 Z M 35.738281 229.238281 " clip-rule="nonzero"/></clipPath><clipPath id="ed01b949e8"><path d="M 48.285156 246.238281 C 50.210938 246.894531 52.402344 247.324219 54.554688 247.324219 C 56.707031 247.324219 58.777344 246.957031 60.6875 246.300781 C 60.726562 246.28125 60.769531 246.28125 60.808594 246.257812 C 67.976562 243.636719 73.253906 236.707031 73.355469 229.238281 L 35.738281 229.238281 C 35.839844 236.75 41.035156 243.675781 48.285156 246.238281 Z M 48.285156 246.238281 " clip-rule="nonzero"/></clipPath></defs><g fill="#b1bee0" fill-opacity="1"><g transform="translate(71.002959, 298.336741)"><g><path d="M 23.8125 -17.59375 C 25.800781 -17.175781 27.394531 -16.191406 28.59375 -14.640625 C 29.800781 -13.097656 30.40625 -11.332031 30.40625 -9.34375 C 30.40625 -6.46875 29.398438 -4.191406 27.390625 -2.515625 C 25.390625 -0.835938 22.597656 0 19.015625 0 L 3.03125 0 L 3.03125 -34.328125 L 18.484375 -34.328125 C 21.972656 -34.328125 24.703125 -33.523438 26.671875 -31.921875 C 28.640625 -30.328125 29.625 -28.160156 29.625 -25.421875 C 29.625 -23.398438 29.09375 -21.722656 28.03125 -20.390625 C 26.976562 -19.054688 25.570312 -18.125 23.8125 -17.59375 Z M 11.390625 -20.4375 L 16.875 -20.4375 C 18.238281 -20.4375 19.285156 -20.738281 20.015625 -21.34375 C 20.753906 -21.945312 21.125 -22.832031 21.125 -24 C 21.125 -25.175781 20.753906 -26.070312 20.015625 -26.6875 C 19.285156 -27.3125 18.238281 -27.625 16.875 -27.625 L 11.390625 -27.625 Z M 17.546875 -6.75 C 18.953125 -6.75 20.035156 -7.066406 20.796875 -7.703125 C 21.566406 -8.335938 21.953125 -9.257812 21.953125 -10.46875 C 21.953125 -11.664062 21.550781 -12.609375 20.75 -13.296875 C 19.957031 -13.984375 18.859375 -14.328125 17.453125 -14.328125 L 11.390625 -14.328125 L 11.390625 -6.75 Z M 17.546875 -6.75 "/></g></g></g><g fill="#b1bee0" fill-opacity="1"><g transform="translate(100.334666, 298.336741)"><g><path d="M 11.25 -34.328125 L 11.25 -13.78125 C 11.25 -11.726562 11.753906 -10.144531 12.765625 -9.03125 C 13.773438 -7.925781 15.253906 -7.375 17.203125 -7.375 C 19.160156 -7.375 20.660156 -7.925781 21.703125 -9.03125 C 22.742188 -10.144531 23.265625 -11.726562 23.265625 -13.78125 L 23.265625 -34.328125 L 31.625 -34.328125 L 31.625 -13.84375 C 31.625 -10.769531 30.972656 -8.175781 29.671875 -6.0625 C 28.367188 -3.945312 26.617188 -2.347656 24.421875 -1.265625 C 22.222656 -0.191406 19.769531 0.34375 17.0625 0.34375 C 14.351562 0.34375 11.929688 -0.179688 9.796875 -1.234375 C 7.660156 -2.296875 5.972656 -3.894531 4.734375 -6.03125 C 3.503906 -8.164062 2.890625 -10.769531 2.890625 -13.84375 L 2.890625 -34.328125 Z M 11.25 -34.328125 "/></g></g></g><g fill="#b1bee0" fill-opacity="1"><g transform="translate(131.915159, 298.336741)"><g><path d="M 15.453125 0.34375 C 12.941406 0.34375 10.691406 -0.0625 8.703125 -0.875 C 6.710938 -1.695312 5.125 -2.90625 3.9375 -4.5 C 2.75 -6.09375 2.117188 -8.015625 2.046875 -10.265625 L 10.953125 -10.265625 C 11.078125 -8.992188 11.515625 -8.023438 12.265625 -7.359375 C 13.015625 -6.691406 13.992188 -6.359375 15.203125 -6.359375 C 16.441406 -6.359375 17.421875 -6.640625 18.140625 -7.203125 C 18.859375 -7.773438 19.21875 -8.566406 19.21875 -9.578125 C 19.21875 -10.429688 18.929688 -11.132812 18.359375 -11.6875 C 17.785156 -12.238281 17.082031 -12.691406 16.25 -13.046875 C 15.425781 -13.410156 14.25 -13.820312 12.71875 -14.28125 C 10.5 -14.957031 8.6875 -15.640625 7.28125 -16.328125 C 5.882812 -17.015625 4.679688 -18.023438 3.671875 -19.359375 C 2.660156 -20.691406 2.15625 -22.4375 2.15625 -24.59375 C 2.15625 -27.789062 3.3125 -30.289062 5.625 -32.09375 C 7.9375 -33.90625 10.953125 -34.8125 14.671875 -34.8125 C 18.453125 -34.8125 21.5 -33.90625 23.8125 -32.09375 C 26.125 -30.289062 27.363281 -27.773438 27.53125 -24.546875 L 18.484375 -24.546875 C 18.421875 -25.648438 18.015625 -26.519531 17.265625 -27.15625 C 16.515625 -27.789062 15.550781 -28.109375 14.375 -28.109375 C 13.363281 -28.109375 12.546875 -27.835938 11.921875 -27.296875 C 11.304688 -26.765625 11 -25.992188 11 -24.984375 C 11 -23.878906 11.519531 -23.015625 12.5625 -22.390625 C 13.601562 -21.773438 15.234375 -21.109375 17.453125 -20.390625 C 19.671875 -19.640625 21.472656 -18.921875 22.859375 -18.234375 C 24.242188 -17.546875 25.441406 -16.550781 26.453125 -15.25 C 27.460938 -13.945312 27.96875 -12.269531 27.96875 -10.21875 C 27.96875 -8.257812 27.46875 -6.484375 26.46875 -4.890625 C 25.476562 -3.296875 24.035156 -2.023438 22.140625 -1.078125 C 20.253906 -0.128906 18.023438 0.34375 15.453125 0.34375 Z M 15.453125 0.34375 "/></g></g></g><g clip-path="url(#6d6af9799a)"><g clip-path="url(#d45a27e13e)"><path fill="#e7ba45" d="M 98.464844 233.445312 L 130.609375 233.445312 L 130.609375 248.910156 L 98.464844 248.910156 Z M 98.464844 233.445312 " fill-opacity="1" fill-rule="nonzero"/></g></g><g clip-path="url(#f0c5c43b70)"><path fill="#e7ba45" d="M 99.691406 115.320312 L 99.335938 164.554688 C 84.539062 166.953125 70.253906 169.300781 57.753906 171.390625 L 53.671875 131.898438 C 66.171875 127.308594 82.34375 121.492188 99.691406 115.320312 Z M 148.773438 97.871094 L 148.367188 156.851562 C 134.082031 159.046875 118.925781 161.441406 104.082031 163.789062 L 99.84375 115.269531 C 115.917969 109.554688 132.910156 103.535156 148.773438 97.871094 Z M 65.050781 191.648438 L 160.253906 181.644531 C 160.253906 181.644531 159.949219 188.023438 151.582031 190.066406 C 143.164062 192.109375 64.691406 193.585938 64.691406 193.585938 Z M 72.039062 204.300781 L 154.03125 197.3125 C 154.03125 197.3125 152.347656 203.378906 145.152344 205.167969 C 137.910156 206.953125 71.730469 206.238281 71.730469 206.238281 Z M 25.203125 185.882812 C 25.203125 185.882812 193.46875 160.730469 198.777344 161.847656 C 204.03125 163.074219 204.539062 169.707031 204.539062 169.707031 L 25.558594 187.257812 Z M 266.785156 194.605469 C 266.785156 194.605469 281.789062 196.34375 288.417969 198.894531 C 291.53125 200.066406 293.316406 202.410156 294.386719 204.554688 C 290.050781 203.6875 275.871094 200.78125 276.277344 201.902344 C 276.683594 203.128906 287.347656 208.078125 292.398438 209.351562 C 285.613281 209.503906 270.816406 209.757812 268.878906 208.636719 C 266.328125 207.15625 266.785156 194.605469 266.785156 194.605469 Z M 261.835938 241.695312 C 259.59375 239.707031 257.703125 237.007812 256.175781 233.6875 C 239.03125 233.484375 223.621094 233.078125 213.875 232.820312 C 212.296875 236.289062 210.355469 239.199219 208.113281 241.390625 C 226.988281 241.445312 245.050781 241.546875 261.835938 241.695312 Z M 125.714844 241.59375 C 139.949219 241.492188 155 241.390625 170.5625 241.390625 C 168.675781 239.660156 166.890625 237.464844 165.410156 234.863281 L 165.355469 234.757812 L 130.253906 235.015625 C 129.027344 237.769531 127.5 240.066406 125.714844 241.59375 Z M 65.457031 242.3125 C 76.832031 242.105469 89.4375 241.953125 103.007812 241.800781 C 101.171875 240.269531 99.539062 238.023438 98.316406 235.269531 L 71.121094 235.472656 C 69.59375 238.484375 67.652344 240.882812 65.457031 242.3125 Z M 204.132812 223.636719 C 206.019531 223.636719 208.722656 223.6875 211.988281 223.742188 L 216.6875 223.742188 L 216.6875 223.84375 C 247.550781 224.65625 315.101562 226.851562 340.816406 222.308594 C 344.949219 221.597656 348.113281 220.066406 349.695312 218.230469 C 350.511719 217.15625 350.5625 212.820312 350.15625 207.308594 C 345.050781 207.921875 340.359375 208.332031 340.359375 208.332031 C 344.542969 206.546875 348.472656 204.503906 348.726562 203.789062 C 348.929688 203.175781 345.050781 203.6875 340.714844 204.453125 C 342.144531 198.378906 347.703125 196.34375 353.113281 194.503906 C 355.105469 206.546875 357.246094 222.363281 355.105469 225.015625 C 353.726562 226.75 349.339844 229.554688 342.808594 230.628906 C 333.214844 232.207031 319.03125 233.078125 303.367188 233.484375 C 301.734375 237.054688 299.59375 240.011719 297.144531 242.105469 C 344.339844 242.824219 375.207031 243.996094 375.207031 245.273438 C 375.207031 247.410156 291.023438 249.199219 187.90625 249.199219 C 84.746094 249.199219 0.609375 247.410156 0.609375 245.273438 C 0.609375 244.351562 16.835938 243.484375 43.773438 242.769531 C 41.171875 241.390625 38.878906 238.738281 37.195312 235.269531 L 32.546875 235.066406 L 17.242188 230.882812 L 16.734375 228.332031 L 31.222656 228.128906 L 31.222656 217.667969 C 31.222656 217.359375 31.222656 217.15625 31.222656 216.902344 C 31.222656 204.453125 36.628906 194.300781 47.550781 194.351562 C 58.515625 194.351562 63.875 204.453125 63.875 216.902344 C 63.875 217.15625 63.875 217.460938 63.875 217.722656 L 63.875 227.71875 L 128.367188 226.902344 L 158.773438 226.546875 L 158.773438 220.015625 L 68.214844 219.964844 L 68.214844 216.648438 C 94.898438 215.472656 129.539062 213.996094 158.773438 212.921875 L 158.773438 211.953125 C 158.773438 169.964844 199.542969 170.523438 199.542969 212.820312 C 199.542969 216.648438 199.132812 220.320312 198.367188 223.742188 L 204.132812 223.742188 Z M 194.441406 222.921875 C 191.890625 230.523438 187.453125 235.527344 182.398438 235.527344 C 177.042969 235.527344 172.347656 229.761719 169.949219 221.238281 C 173.113281 226.75 177.652344 230.21875 182.703125 230.21875 C 187.246094 230.21875 191.324219 227.464844 194.441406 222.921875 Z M 182.5 195.320312 C 187.144531 195.320312 190.867188 200.832031 191.019531 207.667969 C 189.386719 203.992188 186.175781 201.492188 182.5 201.492188 C 178.828125 201.492188 175.613281 203.992188 173.980469 207.667969 C 174.132812 200.832031 177.855469 195.320312 182.5 195.320312 Z M 181.988281 218.894531 C 183.824219 218.894531 185.253906 216.140625 185.253906 212.769531 C 185.253906 209.398438 183.824219 206.648438 181.988281 206.648438 C 180.203125 206.648438 178.726562 209.398438 178.726562 212.769531 C 178.726562 216.140625 180.203125 218.894531 181.988281 218.894531 Z M 47.855469 207.464844 C 51.019531 207.464844 53.621094 211.394531 53.722656 216.390625 C 52.601562 213.6875 50.355469 211.851562 47.855469 211.851562 C 45.300781 211.851562 43.109375 213.6875 41.988281 216.390625 C 42.089844 211.394531 44.640625 207.464844 47.855469 207.464844 Z M 46.9375 197.3125 C 53.164062 197.3125 58.3125 205.21875 59.234375 215.574219 C 57.089844 208.125 52.398438 203.027344 46.9375 203.027344 C 41.425781 203.027344 36.628906 208.332031 34.539062 215.882812 C 35.355469 205.421875 40.558594 197.3125 46.9375 197.3125 Z M 47.496094 224.503906 C 48.773438 224.503906 49.742188 222.515625 49.742188 220.066406 C 49.742188 217.617188 48.773438 215.628906 47.496094 215.628906 C 46.273438 215.628906 45.253906 217.617188 45.253906 220.066406 C 45.253906 222.515625 46.273438 224.503906 47.496094 224.503906 Z M 56.019531 227.464844 C 54.285156 232.976562 51.277344 236.597656 47.804688 236.597656 C 44.082031 236.597656 40.867188 232.414062 39.183594 226.238281 C 41.375 230.21875 44.488281 232.71875 48.007812 232.71875 C 51.070312 232.71875 53.929688 230.730469 56.019531 227.464844 Z M 181.121094 183.992188 C 188.417969 183.992188 194.441406 192.71875 195.457031 204.09375 C 192.960938 195.933594 187.5 190.269531 181.171875 190.269531 C 174.691406 190.269531 169.183594 196.136719 166.789062 204.453125 C 167.703125 192.921875 173.777344 183.992188 181.121094 183.992188 Z M 13.773438 171.695312 L 13.316406 145.066406 C 13.367188 137.871094 18.417969 132.308594 26.070312 129.300781 C 60.710938 115.574219 190.355469 69.398438 226.886719 64.09375 C 238.773438 89.300781 250.15625 126.289062 260.867188 176.035156 C 258.574219 143.125 252.5 111.75 243.675781 81.59375 C 248.011719 82.054688 253.421875 82.769531 257.804688 83.53125 C 262.5 90.984375 269.386719 113.636719 270.5625 119.554688 C 270.816406 120.984375 283.523438 122.109375 282.554688 116.644531 C 282.449219 115.828125 282.144531 114.503906 281.734375 112.769531 L 281.789062 112.769531 C 281.789062 112.769531 281.632812 112.105469 281.328125 110.929688 C 280.355469 107.054688 278.929688 101.953125 277.191406 97.210938 C 276.785156 96.238281 276.429688 95.265625 276.019531 94.351562 C 274.59375 90.574219 272.957031 86.902344 271.226562 84.199219 C 270.816406 83.480469 270.5625 83.074219 270.5625 83.074219 L 270.40625 83.023438 C 269.285156 81.542969 268.164062 80.472656 267.039062 79.964844 C 262.398438 77.921875 249.289062 76.238281 241.835938 75.472656 C 240.765625 71.847656 239.644531 68.277344 238.46875 64.710938 C 261.632812 66.390625 282.042969 70.265625 306.175781 75.933594 C 309.847656 78.28125 313.371094 81.542969 316.683594 85.472656 C 322.296875 86.339844 339.59375 89.195312 343.675781 91.953125 C 344.339844 92.410156 345.050781 93.175781 345.765625 94.148438 L 345.917969 94.195312 C 345.917969 94.195312 349.949219 99.703125 353.0625 105.882812 C 356.277344 112.410156 358.574219 119.65625 359.183594 121.949219 C 360.359375 126.441406 347.601562 125.523438 347.296875 124.351562 C 345.867188 119.402344 338.0625 100.472656 333.066406 94.453125 C 329.488281 93.636719 325.308594 92.871094 321.738281 92.257812 C 329.796875 104.246094 336.636719 120.570312 341.941406 138.890625 C 330.613281 141.085938 318.878906 142.921875 306.53125 145.421875 C 315.304688 145.113281 328.933594 144.25 342.960938 142.667969 C 343.675781 145.269531 344.390625 147.871094 345.003906 150.523438 C 330.511719 154.300781 315.304688 157.054688 299.1875 159.859375 C 310.207031 159.757812 328.828125 159.046875 346.53125 157.003906 C 346.890625 158.636719 347.195312 160.265625 347.550781 161.847656 C 329.386719 167.003906 310.460938 169.964844 289.847656 172.921875 C 303.367188 173.230469 328.421875 172.769531 349.132812 170.066406 C 349.339844 171.390625 349.542969 172.667969 349.746094 173.996094 C 328.625 180.320312 306.6875 182.613281 282.398438 185.675781 C 298.011719 186.339844 329.183594 186.597656 351.175781 183.125 C 351.378906 184.859375 351.632812 186.644531 351.839844 188.429688 C 330.050781 192.972656 298.878906 194.402344 265.816406 189.199219 C 264.183594 188.945312 262.65625 188.535156 261.226562 188.023438 L 262.09375 216.851562 L 255.105469 184.707031 C 240.613281 173.941406 236.886719 148.585938 219.894531 148.585938 L 222.652344 213.328125 L 251.53125 218.894531 L 216.789062 218.382812 L 214.335938 141.746094 L 214.386719 141.746094 L 209.796875 81.035156 L 209.335938 148.738281 C 197.707031 149.707031 176.9375 152.5625 153.164062 156.132812 L 148.773438 97.871094 C 185.101562 85.011719 215.558594 74.351562 215.558594 74.351562 L 34.027344 132.464844 C 20.457031 135.164062 20.457031 146.75 19.796875 157.769531 C 19.796875 157.769531 22.550781 145.421875 29.234375 141.238281 C 30 140.675781 39.285156 137.15625 53.3125 132 L 53.007812 172.15625 C 37.5 174.757812 25.203125 176.851562 18.773438 177.925781 L 14.078125 217.210938 L 13.773438 171.695312 " fill-opacity="1" fill-rule="evenodd"/></g><g clip-path="url(#f9e61ca8ba)"><g clip-path="url(#3d8bd7a280)"><path fill="#e7ba45" d="M 166.421875 229.238281 L 216.039062 229.238281 L 216.039062 253.117188 L 166.421875 253.117188 Z M 166.421875 229.238281 " fill-opacity="1" fill-rule="nonzero"/></g></g><g clip-path="url(#926f7f52a9)"><g clip-path="url(#429101e6a9)"><path fill="#e7ba45" d="M 255.785156 229.238281 L 303.699219 229.238281 L 303.699219 252.296875 L 255.785156 252.296875 Z M 255.785156 229.238281 " fill-opacity="1" fill-rule="nonzero"/></g></g><g clip-path="url(#b972d1c557)"><g clip-path="url(#ed01b949e8)"><path fill="#e7ba45" d="M 35.738281 229.238281 L 73.320312 229.238281 L 73.320312 247.324219 L 35.738281 247.324219 Z M 35.738281 229.238281 " fill-opacity="1" fill-rule="nonzero"/></g></g><g fill="#b1bee0" fill-opacity="1"><g transform="translate(166.081511, 292.83414)"><g><path d="M 16.1875 -22.296875 L 16.1875 -19.921875 L 10.109375 -19.921875 L 10.109375 0 L 7.203125 0 L 7.203125 -19.921875 L 1.09375 -19.921875 L 1.09375 -22.296875 Z M 16.1875 -22.296875 "/></g></g></g><g fill="#b1bee0" fill-opacity="1"><g transform="translate(183.375705, 292.83414)"><g><path d="M 12.5625 0.21875 C 10.5 0.21875 8.613281 -0.265625 6.90625 -1.234375 C 5.195312 -2.203125 3.847656 -3.554688 2.859375 -5.296875 C 1.867188 -7.035156 1.375 -8.988281 1.375 -11.15625 C 1.375 -13.332031 1.867188 -15.289062 2.859375 -17.03125 C 3.847656 -18.769531 5.195312 -20.125 6.90625 -21.09375 C 8.613281 -22.0625 10.5 -22.546875 12.5625 -22.546875 C 14.65625 -22.546875 16.554688 -22.0625 18.265625 -21.09375 C 19.972656 -20.125 21.316406 -18.773438 22.296875 -17.046875 C 23.273438 -15.316406 23.765625 -13.351562 23.765625 -11.15625 C 23.765625 -8.96875 23.273438 -7.007812 22.296875 -5.28125 C 21.316406 -3.550781 19.972656 -2.203125 18.265625 -1.234375 C 16.554688 -0.265625 14.65625 0.21875 12.5625 0.21875 Z M 12.5625 -2.296875 C 14.125 -2.296875 15.523438 -2.660156 16.765625 -3.390625 C 18.015625 -4.117188 19 -5.15625 19.71875 -6.5 C 20.4375 -7.84375 20.796875 -9.394531 20.796875 -11.15625 C 20.796875 -12.945312 20.4375 -14.507812 19.71875 -15.84375 C 19 -17.175781 18.019531 -18.203125 16.78125 -18.921875 C 15.550781 -19.648438 14.144531 -20.015625 12.5625 -20.015625 C 10.988281 -20.015625 9.582031 -19.648438 8.34375 -18.921875 C 7.113281 -18.203125 6.140625 -17.175781 5.421875 -15.84375 C 4.703125 -14.507812 4.34375 -12.945312 4.34375 -11.15625 C 4.34375 -9.394531 4.703125 -7.84375 5.421875 -6.5 C 6.140625 -5.15625 7.117188 -4.117188 8.359375 -3.390625 C 9.609375 -2.660156 11.007812 -2.296875 12.5625 -2.296875 Z M 12.5625 -2.296875 "/></g></g></g><g fill="#b1bee0" fill-opacity="1"><g transform="translate(213.305616, 298.336741)"><g><path d="M 32.46875 -34.328125 L 20.578125 -11.34375 L 20.578125 0 L 12.21875 0 L 12.21875 -11.34375 L 0.34375 -34.328125 L 9.828125 -34.328125 L 16.46875 -19.953125 L 23.078125 -34.328125 Z M 32.46875 -34.328125 "/></g></g></g><g fill="#b1bee0" fill-opacity="1"><g transform="translate(243.223963, 298.336741)"><g><path d="M 19.265625 0.34375 C 16.035156 0.34375 13.078125 -0.40625 10.390625 -1.90625 C 7.703125 -3.40625 5.566406 -5.5 3.984375 -8.1875 C 2.398438 -10.875 1.609375 -13.898438 1.609375 -17.265625 C 1.609375 -20.617188 2.398438 -23.628906 3.984375 -26.296875 C 5.566406 -28.972656 7.703125 -31.0625 10.390625 -32.5625 C 13.078125 -34.0625 16.035156 -34.8125 19.265625 -34.8125 C 22.492188 -34.8125 25.453125 -34.0625 28.140625 -32.5625 C 30.828125 -31.0625 32.941406 -28.972656 34.484375 -26.296875 C 36.035156 -23.628906 36.8125 -20.617188 36.8125 -17.265625 C 36.8125 -13.898438 36.03125 -10.875 34.46875 -8.1875 C 32.90625 -5.5 30.785156 -3.40625 28.109375 -1.90625 C 25.441406 -0.40625 22.492188 0.34375 19.265625 0.34375 Z M 19.265625 -7.28125 C 22.003906 -7.28125 24.195312 -8.191406 25.84375 -10.015625 C 27.488281 -11.847656 28.3125 -14.265625 28.3125 -17.265625 C 28.3125 -20.296875 27.488281 -22.710938 25.84375 -24.515625 C 24.195312 -26.328125 22.003906 -27.234375 19.265625 -27.234375 C 16.492188 -27.234375 14.285156 -26.335938 12.640625 -24.546875 C 10.992188 -22.753906 10.171875 -20.328125 10.171875 -17.265625 C 10.171875 -14.234375 10.992188 -11.8125 12.640625 -10 C 14.285156 -8.1875 16.492188 -7.28125 19.265625 -7.28125 Z M 19.265625 -7.28125 "/></g></g></g><g fill="#b1bee0" fill-opacity="1"><g transform="translate(278.764267, 298.336741)"><g><path d="M 11.25 -34.328125 L 11.25 -13.78125 C 11.25 -11.726562 11.753906 -10.144531 12.765625 -9.03125 C 13.773438 -7.925781 15.253906 -7.375 17.203125 -7.375 C 19.160156 -7.375 20.660156 -7.925781 21.703125 -9.03125 C 22.742188 -10.144531 23.265625 -11.726562 23.265625 -13.78125 L 23.265625 -34.328125 L 31.625 -34.328125 L 31.625 -13.84375 C 31.625 -10.769531 30.972656 -8.175781 29.671875 -6.0625 C 28.367188 -3.945312 26.617188 -2.347656 24.421875 -1.265625 C 22.222656 -0.191406 19.769531 0.34375 17.0625 0.34375 C 14.351562 0.34375 11.929688 -0.179688 9.796875 -1.234375 C 7.660156 -2.296875 5.972656 -3.894531 4.734375 -6.03125 C 3.503906 -8.164062 2.890625 -10.769531 2.890625 -13.84375 L 2.890625 -34.328125 Z M 11.25 -34.328125 "/></g></g></g></svg>